<svg width="1040" height="1040" viewBox="0 0 1040 1040" fill="none" xmlns="http://www.w3.org/2000/svg">
<path d="M940 0H100C44.7715 0 0 44.7715 0 100V940C0 995.228 44.7715 1040 100 1040H940C995.228 1040 1040 995.228 1040 940V100C1040 44.7715 995.228 0 940 0Z" fill="black"/>
<path d="M240 746C233 746 226 745 219 743C212 742 205 741 198 740C180 735 167.5 724.5 160.5 708.5C151.5 688.5 151.5 664.5 160.5 636.5C170.5 607.5 186.5 570.5 208.5 525.5C212.5 517.5 216.5 508.5 220.5 498.5C225.5 488.5 230 479 234 470C221 475 207 483.5 192 495.5C178 506.5 163.5 518 148.5 530C138.5 537 127.5 540 115.5 539C102.5 537 92.0002 531.5 84.0002 522.5C77.0002 512.5 74.5002 501.5 76.5002 489.5C77.5002 477.5 82.5002 467 91.5002 458C105.5 448 120 437 135 425C151 413 167 403 183 395C224 374 261.5 368.5 295.5 378.5C311.5 381.5 323.5 391.5 331.5 408.5C339.5 424.5 339 444.5 330 468.5C322 492.5 308 525 288 566C283 578 277.5 590 271.5 602C266.5 614 261.5 625.5 256.5 636.5C255.5 640.5 254 644 252 647C251 650 250 653 249 656C270 653 300.5 642.5 340.5 624.5C381.5 605.5 436.5 568.5 505.5 513.5C542.5 484.5 576 456.5 606 429.5C636 401.5 660 378.5 678 360.5C696 342.5 705 333.5 705 333.5C717 319.5 731.5 315 748.5 320C756.5 321 763 324.5 768 330.5C773 335.5 777 340.5 780 345.5C787 359.5 787.5 376 781.5 395C776.5 413 765.5 442.5 748.5 483.5C742.5 496.5 736.5 509.5 730.5 522.5C725.5 535.5 720.5 547.5 715.5 558.5C714.5 562.5 713.5 566 712.5 569C712.5 571 712 573 711 575C730 572 750 564 771 551C793 537 814 521.5 834 504.5C855 487.5 872.5 473 886.5 461C896.5 452 907.5 448 919.5 449C931.5 450 942 455 951 464C959 474 962.5 485 961.5 497C961.5 509 956.5 519.5 946.5 528.5C915.5 555.5 883.5 581 850.5 605C818.5 629 786 647 753 659C721 670 688.5 671.5 655.5 663.5C639.5 656.5 628 646.5 621 633.5C615 619.5 613 604 615 587C618 570 624 549 633 524C622 534 610.5 543.5 598.5 552.5C587.5 561.5 575.5 571.5 562.5 582.5C424.5 691.5 317 746 240 746Z" fill="#E5859F"/>
</svg>
